<svg width="161" height="46" viewBox="0 0 161 46" fill="none" xmlns="http://www.w3.org/2000/svg">
<path fill-rule="evenodd" clip-rule="evenodd" d="M152.787 7.53159C152.02 7.87369 151.134 8.80194 150.845 9.56653C150.292 11.0297 150.862 13.1683 152.028 13.9972C153.322 14.9177 155.75 14.9177 157.044 13.9972C159.075 12.5521 158.817 8.88418 156.602 7.71374C155.57 7.16872 153.791 7.08381 152.787 7.53159ZM62.4512 9.62677C57.8566 10.3009 54.9412 11.8877 53.3677 14.5702C50.9938 18.6175 50.8916 26.6454 53.158 31.0247C53.7399 32.1489 55.5061 33.8825 56.73 34.5309C58.5686 35.5048 60.5303 35.9959 63.3772 36.1956C69.3202 36.6119 72.9038 35.3712 75.4507 32.0155C76.4353 30.7178 77.5757 28.6333 77.5757 28.1306C77.5757 27.8198 77.2866 27.6956 73.5057 26.3831L71.1849 25.5774L70.7975 26.3286C69.785 28.291 68.1055 29.261 65.4718 29.4043C60.9746 29.6487 58.9036 27.9022 58.6923 23.6868C58.5141 20.1362 59.3061 18.2061 61.3787 17.1405C63.3103 16.1473 67.005 16.2141 68.7274 17.2738C69.5035 17.7511 70.7769 19.284 71.0627 20.085C71.1063 20.2067 72.5276 19.826 74.4407 19.1796L77.7436 18.0638L77.5432 17.5349C76.8176 15.6185 75.9309 14.216 74.5996 12.8782C72.2406 10.5079 70.1098 9.72073 65.7436 9.60621C64.2723 9.56777 62.7907 9.57681 62.4512 9.62677ZM88.5847 16.6068C88.3583 16.6588 87.6639 16.8042 87.0414 16.9298C82.3983 17.8665 79.5742 21.9526 79.8958 27.268C80.1773 31.9201 82.6769 34.9902 87.0222 36.0212C88.4654 36.3635 91.5689 36.3705 93.0089 36.0346C97.7545 34.9275 100.667 30.8899 100.359 25.8463C100.074 21.1948 97.6878 18.0976 93.5233 16.974C92.4376 16.681 89.2821 16.4465 88.5847 16.6068ZM130.061 16.8118C126.433 17.5976 123.681 20.2277 122.75 23.7976C121.825 27.3467 122.934 31.4571 125.433 33.7388C127.294 35.4384 129.486 36.2626 132.209 36.2869C134.048 36.3031 135.439 35.8313 136.501 34.8298L137.09 34.2756L137.003 36.2287C136.944 37.5533 136.8 38.402 136.556 38.8662C135.937 40.0389 135.414 40.1349 129.644 40.1349H124.493V42.8261V45.5173L130.511 45.4328C135.986 45.3559 136.652 45.3082 137.877 44.9053C140.543 44.0278 142.026 42.608 142.861 40.1359C143.3 38.8366 143.314 38.4873 143.378 27.8508L143.444 16.9031H140.99H138.537L138.408 17.5455C138.337 17.899 138.28 18.4185 138.28 18.7001C138.28 19.2086 138.274 19.2069 137.466 18.4779C135.498 16.7014 133.08 16.1576 130.061 16.8118ZM103.503 19.5758V22.2484H104.841H106.179V26.5659V30.8833H104.841H103.503V33.4532V36.0231H109.574H115.644V33.4532V30.8833H114.179H112.715L112.798 28.262C112.871 25.9688 112.943 25.5317 113.373 24.7698C114.338 23.0603 116.207 22.2484 119.175 22.2484H120.994V19.5758V16.9031L119.297 16.9047C116.086 16.9076 113.908 17.4872 112.312 18.7628C111.895 19.0969 111.501 19.3702 111.438 19.3702C111.375 19.3702 111.323 18.8151 111.323 18.1366V16.9031H107.413H103.503V19.5758ZM148.774 19.5758V22.2484H150.112H151.449V26.5659V30.8833H150.112H148.774V33.4532V36.0231H154.844H160.915V33.4532V30.8833H159.474H158.034V23.8932V16.9031H153.404H148.774V19.5758ZM135.141 22.8609C136.325 23.5254 136.91 24.5258 137.007 26.048C137.203 29.116 134.819 31.1715 131.881 30.4676C128.917 29.7569 127.8 25.8436 129.909 23.5568C131.148 22.2139 133.445 21.9084 135.141 22.8609ZM92.288 22.9263C94.0386 23.9166 94.6746 26.6931 93.6005 28.6545C92.4646 30.7289 88.9386 31.1284 87.0891 29.3925C86.0693 28.4351 85.7732 25.7546 86.5274 24.307C87.2085 22.9997 88.219 22.4843 90.128 22.4705C91.1507 22.4631 91.6592 22.5704 92.288 22.9263Z" fill="#FF6C00"/>
<mask id="path-2-inside-1_113_2723" fill="white">
<path fill-rule="evenodd" clip-rule="evenodd" d="M8.36052 0.557901C7.59792 1.25598 6.68161 3.08921 6.40645 4.46755C6.29638 5.01912 6.20623 5.99085 6.20623 6.62686C6.20623 7.63749 6.17151 7.81445 5.93028 8.03109C5.77842 8.16746 5.54191 8.49757 5.40446 8.76483C5.25639 9.05304 5.03547 9.2745 4.86159 9.30911C2.9754 9.68489 1.21251 10.0932 0.876939 10.2322C0.222701 10.5029 -0.020886 10.9898 0.00138929 11.982C0.0251059 13.0428 0.41951 14.1146 1.10126 14.9711C1.48283 15.4504 1.86701 15.7377 2.62385 16.1093L3.62846 16.4764L6.1795 16.6492C8.66634 16.6908 8.80091 15.8521 9.10805 15.5656C9.49551 15.2042 9.66808 14.5961 9.30459 14.2692C9.05773 14.0472 8.54475 15.0413 6.3564 15.0088C5.01267 14.9888 3.78504 14.9449 3.62846 14.9112C3.25515 14.8309 2.53736 14.2267 2.53736 13.9926C2.53736 13.8916 2.64219 13.809 2.77021 13.809C3.11063 13.809 3.5577 13.4594 3.79146 13.0104C4.08746 12.442 3.80876 12.0664 2.93662 11.8586C1.72523 11.57 1.85692 11.5064 4.83041 10.9435C7.28449 10.4789 7.45064 10.4004 8.09413 9.40384C8.76553 8.36394 9.45096 7.85661 10.339 7.74275L10.9889 7.65935L10.5096 8.03422C9.04149 9.18251 8.65717 11.0756 9.70175 12.0144C9.90944 12.201 10.0735 12.2183 10.7421 12.1245C12.2727 11.9096 13.7134 12.428 14.8226 13.5926C15.935 14.7608 16.3677 15.8874 16.3142 17.4774C16.2575 19.1628 15.554 20.226 13.2709 22.0754C11.3053 23.6678 10.5424 24.5444 9.8472 26.009C9.11722 27.547 9.15326 28.5123 9.94062 28.5123C10.3031 28.5123 10.3907 28.4095 11.2339 26.9957C12.0392 25.6454 12.4639 25.2739 12.9505 25.4942C13.4167 25.7051 13.3776 26.1737 12.8344 26.8802C11.4298 28.7075 11.3403 31.7481 12.6163 34.2808C13.1979 35.4352 13.4443 35.5696 14.978 35.5696C15.8103 35.5696 16.3689 35.4883 17.0643 35.2659L18.0137 34.9623L18.5187 33.9168C19.1881 32.5305 19.3404 31.9224 19.3599 30.5565C19.3773 29.3426 19.4645 29.169 20.0582 29.1649C20.5241 29.1617 20.6708 29.6187 20.6629 31.0496C20.6561 32.2913 20.4662 33.1299 19.9007 34.4151C19.8015 34.6406 19.8438 34.6513 20.5016 34.5679C21.6214 34.4256 23.2206 34.0296 25.0131 33.4504C25.9242 33.1561 26.6844 32.9346 26.7026 32.9583C26.7207 32.982 26.9149 33.2649 27.1339 33.5869C28.1993 35.1533 29.7027 36.067 31.3727 36.163C32.3615 36.2197 33.6882 35.9631 34.0862 35.638C34.5223 35.2818 34.2993 35.7728 33.3311 37.301C32.7504 38.2175 32.2104 39.0451 32.1313 39.1398C31.9707 39.3317 29.2677 39.3955 29.2677 39.2072C29.2677 39.0359 29.9054 38.2296 30.2685 37.9422C30.6544 37.6367 30.5649 37.5033 29.8034 37.2486C28.881 36.9399 27.6901 36.161 26.8802 35.3367C26.0755 34.5179 26.0281 34.4906 25.6571 34.6307C24.4155 35.0999 21.3381 35.7911 18.4576 36.2477C16.4668 36.5632 16.1083 36.836 14.9587 38.9095L14.7354 39.3121H12.9605C11.5125 39.3121 11.1854 39.278 11.1854 39.1269C11.1854 38.8775 11.7938 38.1733 12.0899 38.08C12.3015 38.0133 12.3142 37.93 12.2044 37.3248C12.0324 36.3769 11.6421 35.2673 11.1152 34.2283C10.751 33.5101 10.4637 33.1755 9.58317 32.4438C8.22529 31.3158 7.53672 30.5743 6.80688 29.454C5.61266 27.6206 5.09444 25.7677 5.1061 23.3726C5.11435 21.6733 5.28155 20.855 5.98007 19.0958C6.35522 18.1509 6.37173 18.0456 6.19405 17.7313C5.9253 17.2557 5.39869 17.0908 4.99249 17.3551C4.57332 17.6278 3.78753 19.2288 3.44043 20.5176C3.05952 21.9317 3.02401 24.7186 3.36653 26.3003C3.85226 28.5426 5.13243 30.8201 6.88589 32.5613C7.95222 33.6203 8.23158 34.2646 8.44385 36.1557C8.60633 37.6022 8.55379 37.8245 8.02455 37.9296C7.64613 38.0047 6.95547 38.5919 6.66484 39.0854C6.55425 39.2733 6.4512 39.4076 6.4512 39.4076C6.4512 39.4076 6.29121 39.579 6.23704 39.7148C6.07517 40.1208 6.24084 40.6065 6.63931 40.7591C6.88368 40.8527 8.15375 40.882 19.3874 40.852C37.187 40.8047 34.2123 40.8487 34.2123 40.0928L34.3723 39.247L34.9427 38.3362C35.9768 36.6846 37.093 34.5774 37.424 33.652C37.6031 33.151 37.7904 32.3181 37.8403 31.8012L37.931 30.8613L37.9349 30.7894V30.0737V29.9436C38.0043 29.293 38.0916 29.1455 37.5791 27.6239C37.1324 26.2978 36.6461 25.5744 35.4646 24.4787C33.6854 22.8288 31.9627 22.2047 27.9489 21.7563C24.6663 21.3895 23.413 20.9037 21.9165 19.4175C20.6515 18.1614 20.1601 17.0851 19.3147 13.7189C18.8629 11.9206 18.8551 11.858 19.08 11.8553C19.3912 11.8515 20.9974 10.5676 21.5336 9.89399C23.0395 8.00208 23.8209 5.55625 23.5186 3.68021C23.3556 2.66828 22.9612 2.321 21.9006 2.25555C20.1168 2.14534 17.3958 3.54164 15.0232 5.78461L14.2092 6.554L13.3853 6.34398C12.9321 6.22844 12.3847 6.11888 12.1689 6.10053L11.7766 6.06696L11.7369 5.09108C11.6849 3.81488 11.3944 2.64304 10.8439 1.48928C10.0786 -0.114549 9.38112 -0.376216 8.36052 0.557901ZM24.8943 38.3085C25.6582 37.8048 25.6868 37.7002 25.3233 36.7423C25.2622 36.5812 25.196 36.4537 25.1763 36.4587C25.1565 36.4637 24.5211 36.6375 23.7644 36.8449C22.3561 37.2307 20.5788 37.6003 18.7214 37.8932C17.6387 38.064 17.4315 38.191 17.0189 38.9377C16.9151 39.1255 16.8672 39.3157 16.9124 39.3606C17.0187 39.4662 19.0897 39.4646 21.8413 39.3569C23.8214 39.2793 24.0291 39.2489 24.1004 39.0258C24.1435 38.8908 24.5008 38.568 24.8943 38.3085ZM26.7454 39.3111C27.0525 39.3101 27.1661 39.1947 27.5149 38.5304C27.7743 38.0359 27.8641 37.7507 27.7601 37.7507C27.6061 37.7507 26.385 39.069 26.385 39.2352C26.385 39.2775 26.5472 39.3116 26.7454 39.3111Z"/>
</mask>
<path fill-rule="evenodd" clip-rule="evenodd" d="M8.36052 0.557901C7.59792 1.25598 6.68161 3.08921 6.40645 4.46755C6.29638 5.01912 6.20623 5.99085 6.20623 6.62686C6.20623 7.63749 6.17151 7.81445 5.93028 8.03109C5.77842 8.16746 5.54191 8.49757 5.40446 8.76483C5.25639 9.05304 5.03547 9.2745 4.86159 9.30911C2.9754 9.68489 1.21251 10.0932 0.876939 10.2322C0.222701 10.5029 -0.020886 10.9898 0.00138929 11.982C0.0251059 13.0428 0.41951 14.1146 1.10126 14.9711C1.48283 15.4504 1.86701 15.7377 2.62385 16.1093L3.62846 16.4764L6.1795 16.6492C8.66634 16.6908 8.80091 15.8521 9.10805 15.5656C9.49551 15.2042 9.66808 14.5961 9.30459 14.2692C9.05773 14.0472 8.54475 15.0413 6.3564 15.0088C5.01267 14.9888 3.78504 14.9449 3.62846 14.9112C3.25515 14.8309 2.53736 14.2267 2.53736 13.9926C2.53736 13.8916 2.64219 13.809 2.77021 13.809C3.11063 13.809 3.5577 13.4594 3.79146 13.0104C4.08746 12.442 3.80876 12.0664 2.93662 11.8586C1.72523 11.57 1.85692 11.5064 4.83041 10.9435C7.28449 10.4789 7.45064 10.4004 8.09413 9.40384C8.76553 8.36394 9.45096 7.85661 10.339 7.74275L10.9889 7.65935L10.5096 8.03422C9.04149 9.18251 8.65717 11.0756 9.70175 12.0144C9.90944 12.201 10.0735 12.2183 10.7421 12.1245C12.2727 11.9096 13.7134 12.428 14.8226 13.5926C15.935 14.7608 16.3677 15.8874 16.3142 17.4774C16.2575 19.1628 15.554 20.226 13.2709 22.0754C11.3053 23.6678 10.5424 24.5444 9.8472 26.009C9.11722 27.547 9.15326 28.5123 9.94062 28.5123C10.3031 28.5123 10.3907 28.4095 11.2339 26.9957C12.0392 25.6454 12.4639 25.2739 12.9505 25.4942C13.4167 25.7051 13.3776 26.1737 12.8344 26.8802C11.4298 28.7075 11.3403 31.7481 12.6163 34.2808C13.1979 35.4352 13.4443 35.5696 14.978 35.5696C15.8103 35.5696 16.3689 35.4883 17.0643 35.2659L18.0137 34.9623L18.5187 33.9168C19.1881 32.5305 19.3404 31.9224 19.3599 30.5565C19.3773 29.3426 19.4645 29.169 20.0582 29.1649C20.5241 29.1617 20.6708 29.6187 20.6629 31.0496C20.6561 32.2913 20.4662 33.1299 19.9007 34.4151C19.8015 34.6406 19.8438 34.6513 20.5016 34.5679C21.6214 34.4256 23.2206 34.0296 25.0131 33.4504C25.9242 33.1561 26.6844 32.9346 26.7026 32.9583C26.7207 32.982 26.9149 33.2649 27.1339 33.5869C28.1993 35.1533 29.7027 36.067 31.3727 36.163C32.3615 36.2197 33.6882 35.9631 34.0862 35.638C34.5223 35.2818 34.2993 35.7728 33.3311 37.301C32.7504 38.2175 32.2104 39.0451 32.1313 39.1398C31.9707 39.3317 29.2677 39.3955 29.2677 39.2072C29.2677 39.0359 29.9054 38.2296 30.2685 37.9422C30.6544 37.6367 30.5649 37.5033 29.8034 37.2486C28.881 36.9399 27.6901 36.161 26.8802 35.3367C26.0755 34.5179 26.0281 34.4906 25.6571 34.6307C24.4155 35.0999 21.3381 35.7911 18.4576 36.2477C16.4668 36.5632 16.1083 36.836 14.9587 38.9095L14.7354 39.3121H12.9605C11.5125 39.3121 11.1854 39.278 11.1854 39.1269C11.1854 38.8775 11.7938 38.1733 12.0899 38.08C12.3015 38.0133 12.3142 37.93 12.2044 37.3248C12.0324 36.3769 11.6421 35.2673 11.1152 34.2283C10.751 33.5101 10.4637 33.1755 9.58317 32.4438C8.22529 31.3158 7.53672 30.5743 6.80688 29.454C5.61266 27.6206 5.09444 25.7677 5.1061 23.3726C5.11435 21.6733 5.28155 20.855 5.98007 19.0958C6.35522 18.1509 6.37173 18.0456 6.19405 17.7313C5.9253 17.2557 5.39869 17.0908 4.99249 17.3551C4.57332 17.6278 3.78753 19.2288 3.44043 20.5176C3.05952 21.9317 3.02401 24.7186 3.36653 26.3003C3.85226 28.5426 5.13243 30.8201 6.88589 32.5613C7.95222 33.6203 8.23158 34.2646 8.44385 36.1557C8.60633 37.6022 8.55379 37.8245 8.02455 37.9296C7.64613 38.0047 6.95547 38.5919 6.66484 39.0854C6.55425 39.2733 6.4512 39.4076 6.4512 39.4076C6.4512 39.4076 6.29121 39.579 6.23704 39.7148C6.07517 40.1208 6.24084 40.6065 6.63931 40.7591C6.88368 40.8527 8.15375 40.882 19.3874 40.852C37.187 40.8047 34.2123 40.8487 34.2123 40.0928L34.3723 39.247L34.9427 38.3362C35.9768 36.6846 37.093 34.5774 37.424 33.652C37.6031 33.151 37.7904 32.3181 37.8403 31.8012L37.931 30.8613L37.9349 30.7894V30.0737V29.9436C38.0043 29.293 38.0916 29.1455 37.5791 27.6239C37.1324 26.2978 36.6461 25.5744 35.4646 24.4787C33.6854 22.8288 31.9627 22.2047 27.9489 21.7563C24.6663 21.3895 23.413 20.9037 21.9165 19.4175C20.6515 18.1614 20.1601 17.0851 19.3147 13.7189C18.8629 11.9206 18.8551 11.858 19.08 11.8553C19.3912 11.8515 20.9974 10.5676 21.5336 9.89399C23.0395 8.00208 23.8209 5.55625 23.5186 3.68021C23.3556 2.66828 22.9612 2.321 21.9006 2.25555C20.1168 2.14534 17.3958 3.54164 15.0232 5.78461L14.2092 6.554L13.3853 6.34398C12.9321 6.22844 12.3847 6.11888 12.1689 6.10053L11.7766 6.06696L11.7369 5.09108C11.6849 3.81488 11.3944 2.64304 10.8439 1.48928C10.0786 -0.114549 9.38112 -0.376216 8.36052 0.557901ZM24.8943 38.3085C25.6582 37.8048 25.6868 37.7002 25.3233 36.7423C25.2622 36.5812 25.196 36.4537 25.1763 36.4587C25.1565 36.4637 24.5211 36.6375 23.7644 36.8449C22.3561 37.2307 20.5788 37.6003 18.7214 37.8932C17.6387 38.064 17.4315 38.191 17.0189 38.9377C16.9151 39.1255 16.8672 39.3157 16.9124 39.3606C17.0187 39.4662 19.0897 39.4646 21.8413 39.3569C23.8214 39.2793 24.0291 39.2489 24.1004 39.0258C24.1435 38.8908 24.5008 38.568 24.8943 38.3085ZM26.7454 39.3111C27.0525 39.3101 27.1661 39.1947 27.5149 38.5304C27.7743 38.0359 27.8641 37.7507 27.7601 37.7507C27.6061 37.7507 26.385 39.069 26.385 39.2352C26.385 39.2775 26.5472 39.3116 26.7454 39.3111Z" fill="#FF6C00"/>
<path d="M38.4349 30.7894C38.4349 30.2037 38.4349 30.8405 38.4349 30.0737H37.4349C37.4349 30.8402 37.4349 30.204 37.4349 30.7894L38.4349 30.7894ZM8.36052 0.557901L7.68536 -0.17977L7.6853 -0.17972L8.36052 0.557901ZM6.40645 4.46755L5.4258 4.27178L5.42578 4.27186L6.40645 4.46755ZM5.93028 8.03109L6.59839 8.77516L6.59847 8.77509L5.93028 8.03109ZM5.40446 8.76483L4.51517 8.30748L4.51497 8.30787L5.40446 8.76483ZM4.86159 9.30911L4.66637 8.32835L4.66621 8.32839L4.86159 9.30911ZM0.876939 10.2322L1.25936 11.1562L1.25955 11.1561L0.876939 10.2322ZM0.00138929 11.982L1.00114 11.9596L1.00114 11.9595L0.00138929 11.982ZM1.10126 14.9711L1.88366 14.3483L1.88364 14.3483L1.10126 14.9711ZM2.62385 16.1093L2.1831 17.007L2.23077 17.0304L2.28066 17.0486L2.62385 16.1093ZM3.62846 16.4764L3.28527 17.4157L3.41892 17.4645L3.56088 17.4741L3.62846 16.4764ZM6.1795 16.6492L6.11192 17.6469L6.13732 17.6486L6.16276 17.6491L6.1795 16.6492ZM9.10805 15.5656L8.42602 14.8342L8.42591 14.8344L9.10805 15.5656ZM9.30459 14.2692L9.97325 13.5256L9.97324 13.5256L9.30459 14.2692ZM6.3564 15.0088L6.34149 16.0087L6.34153 16.0087L6.3564 15.0088ZM3.62846 14.9112L3.83887 13.9336L3.83871 13.9336L3.62846 14.9112ZM3.79146 13.0104L4.67841 13.4723L4.67843 13.4723L3.79146 13.0104ZM2.93662 11.8586L3.16839 10.8859L3.16837 10.8859L2.93662 11.8586ZM4.83041 10.9435L5.01641 11.9261L5.01644 11.9261L4.83041 10.9435ZM8.09413 9.40384L8.93422 9.94629L8.93424 9.94625L8.09413 9.40384ZM10.339 7.74275L10.4661 8.73463L10.4662 8.73462L10.339 7.74275ZM10.9889 7.65935L11.6049 8.44705L14.4729 6.20403L10.8616 6.66748L10.9889 7.65935ZM10.5096 8.03422L9.8935 7.24652L9.89346 7.24655L10.5096 8.03422ZM9.70175 12.0144L9.03331 12.7582L9.03343 12.7583L9.70175 12.0144ZM10.7421 12.1245L10.8811 13.1148L10.8811 13.1148L10.7421 12.1245ZM14.8226 13.5926L15.5468 12.903L15.5467 12.9029L14.8226 13.5926ZM16.3142 17.4774L17.3137 17.511L17.3137 17.511L16.3142 17.4774ZM13.2709 22.0754L12.6415 21.2983L12.6414 21.2984L13.2709 22.0754ZM9.8472 26.009L8.94381 25.5801L8.94379 25.5802L9.8472 26.009ZM11.2339 26.9957L10.3751 26.4834L10.375 26.4834L11.2339 26.9957ZM12.9505 25.4942L12.5382 26.4052L12.5383 26.4053L12.9505 25.4942ZM12.8344 26.8802L13.6273 27.4897L13.6273 27.4897L12.8344 26.8802ZM12.6163 34.2808L11.7232 34.7308L11.7232 34.7308L12.6163 34.2808ZM17.0643 35.2659L17.3688 36.2184L17.3689 36.2184L17.0643 35.2659ZM18.0137 34.9623L18.3184 35.9147L18.7274 35.7839L18.9142 35.3972L18.0137 34.9623ZM18.5187 33.9168L19.4192 34.3517L19.4192 34.3516L18.5187 33.9168ZM19.3599 30.5565L18.36 30.5421V30.5422L19.3599 30.5565ZM20.0582 29.1649L20.0515 28.1649L20.0512 28.1649L20.0582 29.1649ZM20.6629 31.0496L19.6629 31.0441V31.0441L20.6629 31.0496ZM19.9007 34.4151L18.9854 34.0123L18.9853 34.0125L19.9007 34.4151ZM20.5016 34.5679L20.6274 35.5599L20.6276 35.5599L20.5016 34.5679ZM25.0131 33.4504L24.7057 32.4988L24.7057 32.4989L25.0131 33.4504ZM26.7026 32.9583L27.4974 32.3514L27.4953 32.3487L26.7026 32.9583ZM27.1339 33.5869L26.3069 34.1492L26.307 34.1493L27.1339 33.5869ZM31.3727 36.163L31.3153 37.1613L31.3154 37.1613L31.3727 36.163ZM34.0862 35.638L33.4537 34.8634L33.4536 34.8635L34.0862 35.638ZM33.3311 37.301L34.1758 37.8362L34.1758 37.8362L33.3311 37.301ZM32.1313 39.1398L32.8983 39.7814L32.8987 39.781L32.1313 39.1398ZM30.2685 37.9422L30.8892 38.7263L30.8893 38.7262L30.2685 37.9422ZM29.8034 37.2486L29.486 38.1969L29.4861 38.1969L29.8034 37.2486ZM26.8802 35.3367L27.5935 34.6359L27.5934 34.6358L26.8802 35.3367ZM25.6571 34.6307L25.3037 33.6952L25.3037 33.6953L25.6571 34.6307ZM18.4576 36.2477L18.6142 37.2354H18.6142L18.4576 36.2477ZM14.9587 38.9095L15.8332 39.3945L15.8333 39.3944L14.9587 38.9095ZM14.7354 39.3121V40.3121H15.3243L15.6099 39.7971L14.7354 39.3121ZM12.0899 38.08L12.3904 39.0338L12.3907 39.0337L12.0899 38.08ZM12.2044 37.3248L13.1884 37.1463L13.1884 37.1462L12.2044 37.3248ZM11.1152 34.2283L10.2233 34.6805L10.2233 34.6805L11.1152 34.2283ZM9.58317 32.4438L10.2223 31.6747L10.2222 31.6746L9.58317 32.4438ZM6.80688 29.454L5.96897 29.9998L5.969 29.9998L6.80688 29.454ZM5.1061 23.3726L6.10609 23.3775V23.3775L5.1061 23.3726ZM5.98007 19.0958L6.90949 19.4648L6.90951 19.4648L5.98007 19.0958ZM6.19405 17.7313L5.32344 18.2232L5.32348 18.2233L6.19405 17.7313ZM4.99249 17.3551L4.44715 16.5169L4.44713 16.5169L4.99249 17.3551ZM3.44043 20.5176L4.40601 20.7777L4.40603 20.7777L3.44043 20.5176ZM3.36653 26.3003L2.38918 26.5119L2.3892 26.512L3.36653 26.3003ZM6.88589 32.5613L7.59057 31.8518L7.59052 31.8517L6.88589 32.5613ZM8.44385 36.1557L7.45009 36.2672L7.4501 36.2673L8.44385 36.1557ZM8.02455 37.9296L8.21916 38.9105L8.2194 38.9104L8.02455 37.9296ZM6.66484 39.0854L5.80315 38.578L5.80304 38.5782L6.66484 39.0854ZM6.4512 39.4076L7.18213 40.0901L7.21512 40.0547L7.24454 40.0164L6.4512 39.4076ZM6.23704 39.7148L7.16592 40.0852L6.23704 39.7148ZM6.63931 40.7591L6.28161 41.693L6.28178 41.693L6.63931 40.7591ZM19.3874 40.852L19.3848 39.852H19.3848L19.3874 40.852ZM34.2123 40.0928L33.2298 39.907L33.2123 39.9991V40.0928H34.2123ZM34.3723 39.247L33.5247 38.7163L33.4247 38.876L33.3897 39.0612L34.3723 39.247ZM34.9427 38.3362L35.7902 38.867L35.7902 38.8669L34.9427 38.3362ZM37.424 33.652L38.3656 33.9887L38.3656 33.9886L37.424 33.652ZM37.8403 31.8012L38.8357 31.8973L38.8357 31.8972L37.8403 31.8012ZM37.931 30.8613L38.9263 30.9574L38.9283 30.9367L38.9295 30.916L37.931 30.8613ZM37.9349 30.7894L38.9334 30.844L38.9349 30.8167V30.7894H37.9349ZM37.9349 29.9436L36.9405 29.8375L36.9349 29.8904V29.9436H37.9349ZM37.5791 27.6239L38.5268 27.3047L38.5268 27.3046L37.5791 27.6239ZM35.4646 24.4787L36.1445 23.7454L36.1445 23.7454L35.4646 24.4787ZM27.9489 21.7563L27.8378 22.7501L27.8379 22.7501L27.9489 21.7563ZM21.9165 19.4175L22.6211 18.7079L22.6211 18.7078L21.9165 19.4175ZM19.3147 13.7189L20.2846 13.4754L20.2846 13.4753L19.3147 13.7189ZM19.08 11.8553L19.0679 10.8553H19.0679L19.08 11.8553ZM21.5336 9.89399L20.7512 9.27121L20.7512 9.27122L21.5336 9.89399ZM23.5186 3.68021L22.5313 3.83924L22.5313 3.83929L23.5186 3.68021ZM21.9006 2.25555L21.8389 3.25365L21.839 3.25365L21.9006 2.25555ZM15.0232 5.78461L15.7101 6.51134L15.7102 6.51128L15.0232 5.78461ZM14.2092 6.554L13.9622 7.52301L14.4959 7.65904L14.8961 7.28072L14.2092 6.554ZM13.3853 6.34398L13.1383 7.31299L13.1383 7.313L13.3853 6.34398ZM12.1689 6.10053L12.0837 7.09689L12.0842 7.09694L12.1689 6.10053ZM11.7766 6.06696L10.7775 6.10761L10.8133 6.98818L11.6914 7.06332L11.7766 6.06696ZM11.7369 5.09108L12.7361 5.05043L12.7361 5.05035L11.7369 5.09108ZM10.8439 1.48928L11.7465 1.05868L11.7465 1.05861L10.8439 1.48928ZM25.3233 36.7423L24.3882 37.0967L24.3883 37.097L25.3233 36.7423ZM24.8943 38.3085L24.3438 37.4736L24.3438 37.4736L24.8943 38.3085ZM24.1004 39.0258L25.0529 39.3303L25.053 39.3299L24.1004 39.0258ZM21.8413 39.3569L21.8804 40.3561H21.8804L21.8413 39.3569ZM16.9124 39.3606L16.2078 40.0702L16.9124 39.3606ZM17.0189 38.9377L17.8941 39.4215L17.8942 39.4214L17.0189 38.9377ZM18.7214 37.8932L18.5656 36.9054L18.5655 36.9054L18.7214 37.8932ZM23.7644 36.8449L24.0286 37.8094L24.0287 37.8094L23.7644 36.8449ZM25.1763 36.4587L25.4187 37.4289L25.4247 37.4274L25.1763 36.4587ZM27.5149 38.5304L28.4003 38.9952L28.4004 38.995L27.5149 38.5304ZM26.7454 39.3111L26.748 40.3111H26.7483L26.7454 39.3111ZM7.6853 -0.17972C7.16959 0.292364 6.68432 1.05403 6.3062 1.81055C5.91884 2.58556 5.5851 3.47382 5.4258 4.27178L7.3871 4.66333C7.50296 4.08295 7.76496 3.36542 8.09519 2.70471C8.43466 2.02552 8.78885 1.52152 9.03573 1.29552L7.6853 -0.17972ZM5.42578 4.27186C5.30133 4.89552 5.20623 5.93343 5.20623 6.62686H7.20623C7.20623 6.04826 7.29143 5.14272 7.38711 4.66325L5.42578 4.27186ZM5.20623 6.62686C5.20623 6.87722 5.20401 7.05966 5.19798 7.19887C5.1918 7.34134 5.1827 7.40737 5.17748 7.43393C5.17406 7.45133 5.17999 7.41157 5.21449 7.35326C5.24819 7.29628 5.2807 7.27039 5.2621 7.2871L6.59847 8.77509C6.70048 8.68348 6.82779 8.55422 6.93585 8.37155C7.0447 8.18755 7.10454 7.99975 7.13996 7.81952C7.20131 7.50728 7.20623 7.10515 7.20623 6.62686H5.20623ZM5.26217 7.28703C4.98756 7.53361 4.6843 7.97861 4.51517 8.30748L6.29374 9.22218C6.33586 9.14028 6.40209 9.03283 6.47481 8.93135C6.5101 8.88211 6.54235 8.84066 6.56864 8.80941C6.59771 8.77486 6.60775 8.76676 6.59839 8.77516L5.26217 7.28703ZM4.51497 8.30787C4.50008 8.33684 4.48395 8.36291 4.46841 8.38463C4.4526 8.40672 4.44035 8.42019 4.43469 8.42587C4.42787 8.43272 4.43616 8.42278 4.46308 8.40569C4.47726 8.39669 4.50019 8.38344 4.53194 8.36972C4.56346 8.35609 4.60867 8.33984 4.66637 8.32835L5.05682 10.2899C5.42681 10.2162 5.69685 9.99253 5.85072 9.83827C6.02681 9.66172 6.17786 9.44775 6.29394 9.22179L4.51497 8.30787ZM4.66621 8.32839C3.71465 8.51796 2.79215 8.71614 2.06212 8.88524C1.6976 8.96968 1.37635 9.04796 1.12127 9.11511C0.889924 9.17602 0.651055 9.24336 0.49433 9.30826L1.25955 11.1561C1.25283 11.1589 1.2773 11.149 1.35446 11.1259C1.42384 11.105 1.51585 11.0794 1.63046 11.0492C1.85925 10.989 2.15953 10.9156 2.51345 10.8337C3.2203 10.6699 4.12234 10.476 5.05698 10.2898L4.66621 8.32839ZM0.494519 9.30818C-0.00606769 9.51536 -0.439676 9.85117 -0.708832 10.3891C-0.955882 10.8829 -1.01093 11.4447 -0.998359 12.0044L1.00114 11.9595C0.991429 11.5271 1.04704 11.3495 1.07977 11.284C1.0904 11.2628 1.10571 11.2198 1.25936 11.1562L0.494519 9.30818ZM-0.998361 12.0043C-0.969595 13.2911 -0.49436 14.5723 0.318885 15.5939L1.88364 14.3483C1.33338 13.657 1.01981 12.7946 1.00114 11.9596L-0.998361 12.0043ZM0.318868 15.5938C0.820383 16.2239 1.3404 16.5932 2.1831 17.007L3.06459 15.2117C2.39362 14.8823 2.14527 14.6769 1.88366 14.3483L0.318868 15.5938ZM2.28066 17.0486L3.28527 17.4157L3.97165 15.5371L2.96703 15.1701L2.28066 17.0486ZM3.56088 17.4741L6.11192 17.6469L6.24708 15.6515L3.69604 15.4787L3.56088 17.4741ZM6.16276 17.6491C7.5006 17.6715 8.3781 17.4632 8.99274 17.0775C9.30538 16.8812 9.5091 16.6642 9.65133 16.4865C9.70995 16.4133 9.77595 16.3227 9.79431 16.2984C9.828 16.2537 9.81981 16.2692 9.79019 16.2968L8.42591 14.8344C8.31951 14.9336 8.23992 15.0379 8.19775 15.0938C8.14025 15.17 8.12592 15.1917 8.08988 15.2367C8.04277 15.2956 7.99984 15.3393 7.92959 15.3834C7.77845 15.4783 7.34525 15.6686 6.19625 15.6493L6.16276 17.6491ZM9.79007 16.2969C10.1212 15.9881 10.3791 15.5622 10.4697 15.0947C10.563 14.613 10.4844 13.9853 9.97325 13.5256L8.63594 15.0128C8.57567 14.9586 8.53393 14.8859 8.51529 14.8158C8.49864 14.7532 8.50594 14.7155 8.50619 14.7142C8.50652 14.7125 8.50304 14.7292 8.48658 14.7578C8.47053 14.7857 8.44903 14.8128 8.42602 14.8342L9.79007 16.2969ZM9.97324 13.5256C9.69355 13.2741 9.3509 13.2072 9.05803 13.2483C8.83395 13.2797 8.65559 13.372 8.58242 13.4104C8.49874 13.4544 8.3971 13.5152 8.33775 13.5497C8.26463 13.5922 8.19199 13.6331 8.1107 13.6739C7.81195 13.8235 7.29452 14.0226 6.37126 14.0089L6.34153 16.0087C7.60662 16.0275 8.43986 15.7458 9.00641 15.4621C9.14144 15.3944 9.25479 15.33 9.34282 15.2788C9.44464 15.2196 9.47932 15.1985 9.51264 15.1809C9.55647 15.1579 9.47578 15.2093 9.33556 15.2289C9.12654 15.2582 8.85393 15.2088 8.63595 15.0128L9.97324 13.5256ZM6.37131 14.0089C5.70498 13.999 5.06921 13.9832 4.58298 13.9658C4.33929 13.9571 4.13735 13.9481 3.98966 13.9395C3.79899 13.9285 3.78457 13.9219 3.83887 13.9336L3.41805 15.8888C3.55064 15.9174 3.74839 15.9289 3.87394 15.9362C4.04246 15.9459 4.26077 15.9555 4.51152 15.9645C5.01418 15.9825 5.66409 15.9986 6.34149 16.0087L6.37131 14.0089ZM3.83871 13.9336C3.88 13.9424 3.8959 13.9513 3.88139 13.9449C3.86987 13.9397 3.84697 13.9283 3.81353 13.9084C3.74558 13.8677 3.66438 13.8098 3.58697 13.7446C3.50688 13.6772 3.4555 13.6228 3.43426 13.5964C3.42315 13.5826 3.43591 13.5957 3.45584 13.634C3.46642 13.6543 3.4845 13.6922 3.50092 13.7453C3.5169 13.797 3.53736 13.8826 3.53736 13.9926H1.53736C1.53736 14.2546 1.6298 14.4576 1.68203 14.5579C1.74267 14.6743 1.81442 14.7737 1.87644 14.8507C2.00146 15.006 2.15285 15.1516 2.29888 15.2746C2.44757 15.3997 2.61582 15.5225 2.78745 15.6251C2.94333 15.7183 3.16788 15.835 3.41821 15.8889L3.83871 13.9336ZM3.53736 13.9926C3.53736 14.3089 3.37129 14.5328 3.22491 14.6482C3.07921 14.7631 2.91573 14.809 2.77021 14.809V12.809C2.32451 12.809 1.53736 13.1308 1.53736 13.9926H3.53736ZM2.77021 14.809C3.25317 14.809 3.66404 14.5791 3.93682 14.3658C4.23051 14.1362 4.49413 13.8262 4.67841 13.4723L2.90451 12.5486C2.85504 12.6436 2.77824 12.7329 2.70485 12.7903C2.68827 12.8033 2.67434 12.8126 2.66385 12.819C2.65323 12.8254 2.64798 12.8276 2.64871 12.8273C2.64925 12.8271 2.65889 12.823 2.67754 12.8187C2.69612 12.8144 2.72765 12.809 2.77021 12.809V14.809ZM4.67843 13.4723C4.92911 12.9908 5.05715 12.3124 4.6051 11.7033C4.2429 11.2153 3.6541 11.0016 3.16839 10.8859L2.70484 12.8314C2.87376 12.8717 2.97417 12.9111 3.02643 12.9377C3.08022 12.965 3.04761 12.9606 2.99909 12.8953C2.97328 12.8605 2.94739 12.8141 2.9292 12.7576C2.911 12.7011 2.90484 12.648 2.90554 12.6041C2.90685 12.5213 2.93135 12.497 2.90449 12.5486L4.67843 13.4723ZM3.16837 10.8859C2.8224 10.8034 2.73395 10.7704 2.74779 10.7773C2.75982 10.7832 2.84329 10.8238 2.93623 10.9139C3.02961 11.0044 3.23032 11.2449 3.219 11.6208C3.20798 11.9867 3.00307 12.2084 2.92007 12.2847C2.83241 12.3652 2.75694 12.4006 2.74927 12.4043C2.74904 12.4044 2.8827 12.3563 3.32251 12.2605C3.71858 12.1742 4.27108 12.0672 5.01641 11.9261L4.64441 9.96097C3.90299 10.1013 3.32397 10.2133 2.89692 10.3063C2.5136 10.3898 2.13252 10.4811 1.8791 10.6036C1.80813 10.6378 1.68572 10.7027 1.56673 10.8121C1.45239 10.9172 1.23176 11.167 1.21991 11.5606C1.20775 11.9642 1.42251 12.232 1.54409 12.3499C1.66523 12.4673 1.79105 12.5352 1.85886 12.5689C2.09579 12.6864 2.44514 12.7695 2.70486 12.8314L3.16837 10.8859ZM5.01644 11.9261C6.18752 11.7043 6.99584 11.5475 7.56792 11.2776C8.2695 10.9466 8.60026 10.4635 8.93422 9.94629L7.25404 8.86139C6.9445 9.34077 6.87044 9.3952 6.71456 9.46875C6.42917 9.60339 5.92737 9.71806 4.64437 9.96098L5.01644 11.9261ZM8.93424 9.94625C9.51001 9.05448 9.97032 8.7982 10.4661 8.73463L10.2118 6.75087C8.9316 6.91501 8.02106 7.6734 7.25402 8.86143L8.93424 9.94625ZM10.4662 8.73462L11.1162 8.65121L10.8616 6.66748L10.2117 6.75089L10.4662 8.73462ZM10.3728 6.87165L9.8935 7.24652L11.1256 8.82192L11.6049 8.44705L10.3728 6.87165ZM9.89346 7.24655C8.98944 7.95365 8.38402 8.91554 8.18339 9.90395C7.98213 10.8955 8.18578 11.9965 9.03331 12.7582L10.3702 11.2706C10.1731 11.0935 10.0467 10.7785 10.1434 10.3018C10.2408 9.82187 10.5616 9.26308 11.1257 8.82189L9.89346 7.24655ZM9.03343 12.7583C9.26284 12.9644 9.54589 13.1269 9.9439 13.169C10.236 13.1999 10.5644 13.1592 10.8811 13.1148L10.6032 11.1342C10.4421 11.1568 10.3311 11.1698 10.2501 11.176C10.1674 11.1824 10.1448 11.1791 10.1543 11.1801C10.1737 11.1822 10.2266 11.1913 10.2904 11.2219C10.3496 11.2503 10.3795 11.279 10.3701 11.2705L9.03343 12.7583ZM10.8811 13.1148C12.0773 12.9469 13.201 13.34 14.0985 14.2823L15.5467 12.9029C14.2258 11.5161 12.4681 10.8724 10.6031 11.1342L10.8811 13.1148ZM14.0984 14.2822C14.587 14.7952 14.8896 15.26 15.0721 15.7353C15.2543 16.2099 15.3381 16.7504 15.3148 17.4438L17.3137 17.511C17.3438 16.6143 17.238 15.7966 16.9392 15.0183C16.6406 14.2408 16.1707 13.5581 15.5468 12.903L14.0984 14.2822ZM15.3148 17.4438C15.2918 18.1273 15.1467 18.6295 14.7936 19.163C14.4129 19.7382 13.7653 20.388 12.6415 21.2983L13.9003 22.8524C15.0596 21.9134 15.9053 21.1069 16.4614 20.2668C17.045 19.385 17.2799 18.513 17.3137 17.511L15.3148 17.4438ZM12.6414 21.2984C10.6181 22.9375 9.7291 23.9259 8.94381 25.5801L10.7506 26.4378C11.3558 25.1629 11.9925 24.398 13.9004 22.8524L12.6414 21.2984ZM8.94379 25.5802C8.55938 26.3901 8.30023 27.1948 8.3256 27.8747C8.33873 28.2264 8.43296 28.6552 8.74667 29.005C9.0815 29.3785 9.53014 29.5123 9.94062 29.5123V27.5123C9.95742 27.5123 10.1063 27.5255 10.2357 27.6699C10.3441 27.7907 10.3273 27.8819 10.3242 27.8001C10.3172 27.6128 10.405 27.1658 10.7506 26.4378L8.94379 25.5802ZM9.94062 29.5123C10.0695 29.5123 10.3123 29.5068 10.5786 29.39C10.843 29.274 11.0304 29.0943 11.1679 28.933C11.4094 28.6499 11.6934 28.1776 12.0928 27.5079L10.375 26.4834C10.1636 26.8381 10.0068 27.098 9.88304 27.2928C9.75538 27.4937 9.68476 27.5899 9.64606 27.6353C9.61096 27.6765 9.65573 27.6108 9.77545 27.5583C9.89706 27.505 9.99293 27.5123 9.94062 27.5123V29.5123ZM12.0927 27.5079C12.4976 26.829 12.7351 26.5268 12.8701 26.4087C12.9237 26.3618 12.8954 26.4041 12.7924 26.4254C12.6707 26.4505 12.573 26.421 12.5382 26.4052L13.3629 24.5832C13.0848 24.4573 12.7514 24.3916 12.3881 24.4667C12.0435 24.5378 11.7674 24.7161 11.5534 24.9033C11.1531 25.2534 10.7755 25.812 10.3751 26.4834L12.0927 27.5079ZM12.5383 26.4053C12.5251 26.3993 12.436 26.3549 12.3598 26.2341C12.2788 26.1058 12.2691 25.9818 12.2745 25.9179C12.2786 25.8684 12.2893 25.8747 12.2516 25.9506C12.2158 26.0227 12.1508 26.1288 12.0416 26.2708L13.6273 27.4897C13.9265 27.1004 14.2232 26.6146 14.2675 26.0848C14.2923 25.7892 14.2389 25.4642 14.0512 25.1668C13.8681 24.8767 13.6091 24.6946 13.3627 24.5831L12.5383 26.4053ZM12.0416 26.2708C10.3438 28.4794 10.3227 31.9508 11.7232 34.7308L13.5093 33.8309C12.3579 31.5453 12.5158 28.9356 13.6273 27.4897L12.0416 26.2708ZM11.7232 34.7308C12.0033 35.2866 12.3282 35.8906 12.9611 36.2359C13.5487 36.5566 14.261 36.5696 14.978 36.5696V34.5696C14.5988 34.5696 14.3486 34.5607 14.1664 34.5382C13.9912 34.5165 13.9333 34.4881 13.9191 34.4803C13.9 34.4699 13.8109 34.4295 13.5093 33.8309L11.7232 34.7308ZM14.978 36.5696C15.8995 36.5696 16.5623 36.4763 17.3688 36.2184L16.7597 34.3135C16.1754 34.5003 15.7211 34.5696 14.978 34.5696V36.5696ZM17.3689 36.2184L18.3184 35.9147L17.7091 34.0098L16.7596 34.3135L17.3689 36.2184ZM18.9142 35.3972L19.4192 34.3517L17.6182 33.4818L17.1132 34.5273L18.9142 35.3972ZM19.4192 34.3516C19.7628 33.6401 20.0038 33.0683 20.1531 32.4719C20.3042 31.8683 20.3496 31.2876 20.3598 30.5708L18.36 30.5422C18.3507 31.1913 18.3102 31.5976 18.213 31.9861C18.1139 32.3817 17.9441 32.8071 17.6182 33.4819L19.4192 34.3516ZM20.3598 30.5708C20.3641 30.2708 20.3726 30.0715 20.3873 29.9333C20.3944 29.8666 20.4014 29.8297 20.4053 29.8133C20.4092 29.7965 20.4064 29.8163 20.3867 29.8555C20.3651 29.8986 20.3252 29.9609 20.2587 30.0222C20.1914 30.0843 20.121 30.1229 20.0642 30.1451C20.0124 30.1653 19.9798 30.1687 19.9843 30.1681C19.9891 30.1675 20.0121 30.1652 20.0652 30.1648L20.0512 28.1649C19.881 28.1661 19.6095 28.1758 19.338 28.2816C19.0074 28.4104 18.7553 28.6473 18.5992 28.9585C18.4683 29.2192 18.4222 29.4988 18.3985 29.7217C18.3734 29.9576 18.3644 30.2352 18.36 30.5421L20.3598 30.5708ZM20.0649 30.1648C20.0084 30.1652 19.8601 30.1477 19.7171 30.0307C19.593 29.9292 19.5723 29.8321 19.586 29.875C19.5996 29.9173 19.6235 30.0229 19.6406 30.2324C19.6572 30.4356 19.6648 30.7003 19.6629 31.0441L21.6629 31.0551C21.6667 30.3513 21.6393 29.7281 21.4904 29.264C21.4102 29.0141 21.266 28.7139 20.9836 28.4829C20.6823 28.2364 20.3409 28.1629 20.0515 28.1649L20.0649 30.1648ZM19.6629 31.0441C19.6569 32.1323 19.503 32.8361 18.9854 34.0123L20.816 34.8179C21.4295 33.4238 21.6552 32.4504 21.6629 31.0551L19.6629 31.0441ZM18.9853 34.0125C18.9696 34.0481 18.943 34.1101 18.92 34.1809C18.8997 34.2434 18.8586 34.3814 18.8603 34.5553C18.8622 34.7553 18.9224 35.0235 19.1322 35.2554C19.3226 35.4659 19.5461 35.5448 19.671 35.5765C19.8889 35.6319 20.1048 35.6146 20.1919 35.608C20.3158 35.5986 20.466 35.5804 20.6274 35.5599L20.3758 33.5758C20.2083 33.597 20.1066 33.6088 20.0406 33.6138C20.0086 33.6162 20.0024 33.6156 20.012 33.6158C20.0152 33.6158 20.0764 33.616 20.1635 33.6381C20.2483 33.6597 20.4434 33.7235 20.6154 33.9137C20.8067 34.1252 20.8586 34.3678 20.8602 34.5364C20.8615 34.6788 20.8283 34.7797 20.8221 34.7987C20.8132 34.8262 20.8069 34.8385 20.816 34.8178L18.9853 34.0125ZM20.6276 35.5599C21.8362 35.4064 23.5025 34.9894 25.3206 34.402L24.7057 32.4989C22.9388 33.0697 21.4066 33.4449 20.3756 33.5758L20.6276 35.5599ZM25.3205 34.402C25.7697 34.2569 26.1779 34.131 26.4724 34.0452C26.6213 34.0018 26.7322 33.9713 26.8018 33.9539C26.8397 33.9444 26.8483 33.9431 26.8389 33.9449C26.8388 33.9449 26.8019 33.9519 26.7484 33.955C26.726 33.9563 26.6563 33.96 26.5667 33.948C26.5218 33.9421 26.4378 33.9279 26.3384 33.8892C26.2468 33.8536 26.0626 33.7665 25.91 33.568L27.4953 32.3487C27.3421 32.1494 27.1569 32.0617 27.064 32.0255C26.9634 31.9863 26.8777 31.9718 26.8308 31.9656C26.7372 31.9531 26.6621 31.9567 26.6329 31.9584C26.5659 31.9622 26.5098 31.9719 26.4855 31.9763C26.4274 31.9867 26.3666 32.0012 26.3164 32.0137C26.2098 32.0404 26.0703 32.0792 25.913 32.125C25.595 32.2176 25.1676 32.3496 24.7057 32.4988L25.3205 34.402ZM25.9078 33.5652C25.8944 33.5476 25.8923 33.5438 25.9249 33.5908C25.9478 33.6239 25.9797 33.6701 26.0184 33.7265C26.0956 33.8391 26.1981 33.9891 26.3069 34.1492L27.9608 33.0247C27.7564 32.7239 27.5375 32.4039 27.4974 32.3514L25.9078 33.5652ZM26.307 34.1493C27.5208 35.9339 29.291 37.0449 31.3153 37.1613L31.4301 35.1646C30.1144 35.089 28.8777 34.3727 27.9607 33.0245L26.307 34.1493ZM31.3154 37.1613C31.9072 37.1953 32.5702 37.1359 33.1409 37.0255C33.4287 36.9698 33.7122 36.8975 33.9653 36.8085C34.1985 36.7264 34.4852 36.6033 34.7189 36.4124L33.4536 34.8635C33.4882 34.8352 33.4598 34.8661 33.3014 34.9218C33.1629 34.9706 32.9783 35.0199 32.7611 35.0619C32.3217 35.1469 31.827 35.1874 31.43 35.1646L31.3154 37.1613ZM34.7188 36.4125C34.7583 36.3802 34.7401 36.4003 34.6827 36.4303C34.6574 36.4436 34.5657 36.4907 34.43 36.5139C34.2974 36.5366 33.9754 36.5579 33.6714 36.3197C33.3699 36.0833 33.3133 35.7689 33.3027 35.6398C33.2917 35.5056 33.3135 35.4074 33.3197 35.3806C33.3336 35.3198 33.3473 35.2998 33.3248 35.3494C33.2364 35.544 32.9785 35.989 32.4864 36.7658L34.1758 37.8362C34.6519 37.0848 34.9896 36.5202 35.1458 36.1763C35.1844 36.0913 35.2372 35.9661 35.2688 35.8288C35.2837 35.7638 35.309 35.6345 35.296 35.4763C35.2834 35.3232 35.2195 34.992 34.9053 34.7457C34.5887 34.4975 34.2487 34.5159 34.0929 34.5425C33.934 34.5697 33.8137 34.6277 33.7547 34.6586C33.6299 34.724 33.5232 34.8067 33.4537 34.8634L34.7188 36.4125ZM32.4864 36.7658C32.1979 37.2211 31.9202 37.6533 31.7056 37.9821C31.5981 38.1469 31.5079 38.2834 31.4409 38.383C31.3571 38.5075 31.3423 38.5244 31.3638 38.4987L32.8987 39.781C32.9598 39.7078 33.0421 39.5859 33.1 39.4998C33.1746 39.389 33.2706 39.2436 33.3806 39.0751C33.6009 38.7373 33.8836 38.2975 34.1758 37.8362L32.4864 36.7658ZM31.3642 38.4983C31.4604 38.3833 31.5592 38.3205 31.6041 38.2942C31.6554 38.2642 31.6963 38.2476 31.7149 38.2405C31.751 38.2266 31.7669 38.2246 31.7462 38.2291C31.7085 38.2375 31.6308 38.2503 31.508 38.2637C31.2687 38.2897 30.9456 38.3086 30.6157 38.3164C30.2845 38.3242 29.9749 38.3201 29.7608 38.3054C29.7088 38.3019 29.6672 38.298 29.6357 38.2943C29.6023 38.2903 29.5901 38.2877 29.5936 38.2884C29.5959 38.2889 29.6089 38.2917 29.6294 38.2981C29.6476 38.3037 29.6891 38.3173 29.7421 38.3436C29.7873 38.366 29.8939 38.4231 30.0009 38.5358C30.1169 38.6581 30.2677 38.8867 30.2677 39.2072H28.2677C28.2677 39.5395 28.4238 39.7794 28.55 39.9124C28.6672 40.036 28.7891 40.1034 28.8541 40.1356C28.9858 40.2009 29.111 40.2304 29.1747 40.2441C29.3197 40.2751 29.4825 40.2911 29.6243 40.3008C29.9221 40.3211 30.2982 40.3244 30.6628 40.3158C31.0288 40.3072 31.4116 40.286 31.7243 40.2519C31.8774 40.2353 32.0373 40.2131 32.1781 40.182C32.2466 40.1668 32.3371 40.1438 32.4304 40.1081C32.4809 40.0888 32.7128 40.0032 32.8983 39.7814L31.3642 38.4983ZM30.2677 39.2072C30.2677 39.3369 30.2403 39.4311 30.2303 39.4634C30.2177 39.5042 30.2057 39.5304 30.2025 39.5373C30.1963 39.5506 30.1988 39.543 30.2197 39.5098C30.2597 39.4461 30.3275 39.3509 30.4162 39.2387C30.5031 39.1288 30.5991 39.0167 30.6898 38.9196C30.7853 38.8174 30.8545 38.7538 30.8892 38.7263L29.6478 37.1582C29.3751 37.3741 29.0681 37.7192 28.8477 37.9978C28.7316 38.1445 28.6172 38.3009 28.5263 38.4456C28.4817 38.5166 28.4316 38.6023 28.3891 38.6936C28.3656 38.7442 28.2677 38.9488 28.2677 39.2072H30.2677ZM30.8893 38.7262C30.9988 38.6395 31.1983 38.4743 31.3339 38.237C31.4109 38.1022 31.4898 37.9063 31.4917 37.6634C31.4937 37.4096 31.4109 37.1895 31.2967 37.0194C31.1045 36.7327 30.8223 36.5869 30.6881 36.5218C30.519 36.4397 30.3212 36.3673 30.1206 36.3002L29.4861 38.1969C29.6663 38.2572 29.7652 38.297 29.8151 38.3212C29.8385 38.3325 29.8293 38.3301 29.8032 38.3114C29.78 38.2947 29.7066 38.239 29.6357 38.1334C29.5563 38.0149 29.4902 37.8473 29.4917 37.6479C29.4932 37.4594 29.5545 37.3198 29.5975 37.2446C29.6652 37.1261 29.7312 37.0921 29.6478 37.1582L30.8893 38.7262ZM30.1207 36.3002C29.3737 36.0503 28.3135 35.3686 27.5935 34.6359L26.1669 36.0376C27.0667 36.9534 28.3884 37.8296 29.486 38.1969L30.1207 36.3002ZM27.5934 34.6358C27.3954 34.4343 27.2266 34.2636 27.0852 34.1312C26.9519 34.0064 26.7898 33.8642 26.6059 33.758C26.3877 33.632 26.128 33.5499 25.8288 33.5687C25.5889 33.5838 25.3832 33.6652 25.3037 33.6952L26.0105 35.5662C26.0534 35.55 26.0631 35.5473 26.0603 35.5481C26.0546 35.5497 26.015 35.561 25.9543 35.5648C25.888 35.569 25.8149 35.5631 25.7422 35.5442C25.6734 35.5262 25.6267 35.5021 25.6061 35.4902C25.581 35.4757 25.6049 35.4851 25.7184 35.5913C25.8238 35.69 25.9627 35.8298 26.1669 36.0376L27.5934 34.6358ZM25.3037 33.6953C24.1647 34.1257 21.1745 34.8046 18.3011 35.26L18.6142 37.2354C21.5017 36.7777 24.6662 36.0742 26.0106 35.5662L25.3037 33.6953ZM18.3011 35.26C17.3133 35.4166 16.4912 35.5879 15.7872 36.1235C15.1119 36.6372 14.6437 37.4152 14.0841 38.4247L15.8333 39.3944C16.4232 38.3302 16.7091 37.9351 16.9981 37.7152C17.2585 37.5172 17.6111 37.3943 18.6142 37.2354L18.3011 35.26ZM14.0842 38.4245L13.8609 38.8271L15.6099 39.7971L15.8332 39.3945L14.0842 38.4245ZM14.7354 38.3121H12.9605V40.3121H14.7354V38.3121ZM12.9605 38.3121C12.2232 38.3121 11.8347 38.3025 11.6337 38.2816C11.5156 38.2692 11.5702 38.2621 11.676 38.3106C11.7404 38.3402 11.8767 38.414 11.9966 38.5707C12.1311 38.7465 12.1854 38.9483 12.1854 39.1269H10.1854C10.1854 39.3434 10.25 39.5792 10.408 39.7858C10.5515 39.9734 10.7246 40.0746 10.8422 40.1286C11.0547 40.226 11.2816 40.2557 11.4262 40.2708C11.7508 40.3046 12.2498 40.3121 12.9605 40.3121V38.3121ZM12.1854 39.1269C12.1854 39.2095 12.1733 39.2726 12.1648 39.3083C12.1558 39.3457 12.1462 39.3715 12.1414 39.3835C12.1325 39.4059 12.1294 39.4076 12.1421 39.3865C12.1671 39.3449 12.2156 39.277 12.2833 39.1987C12.3501 39.1214 12.4166 39.0559 12.4675 39.013C12.4927 38.9918 12.5049 38.9839 12.5036 38.9848C12.5024 38.9856 12.4935 38.9912 12.4776 38.9991C12.4623 39.0068 12.4327 39.0205 12.3904 39.0338L11.7894 37.1262C11.519 37.2114 11.3006 37.3811 11.1798 37.4827C11.0334 37.606 10.8923 37.7496 10.7699 37.8912C10.6485 38.0317 10.5264 38.1924 10.4281 38.3559C10.3791 38.4374 10.3262 38.5359 10.2828 38.6448C10.2449 38.7403 10.1854 38.9141 10.1854 39.1269H12.1854ZM12.3907 39.0337C12.4724 39.0079 12.6888 38.938 12.8862 38.758C13.1222 38.5428 13.2225 38.2777 13.2564 38.0543C13.2849 37.8664 13.2695 37.6896 13.2559 37.573C13.241 37.4448 13.2161 37.2988 13.1884 37.1463L11.2205 37.5033C11.2477 37.6534 11.2624 37.7448 11.2693 37.8044C11.2777 37.8758 11.2664 37.8374 11.279 37.7543C11.2867 37.7039 11.3047 37.6245 11.3491 37.5333C11.3958 37.4376 11.4607 37.3512 11.5388 37.2799C11.613 37.2123 11.6827 37.1733 11.7251 37.1528C11.7465 37.1425 11.7633 37.1357 11.7733 37.1319C11.7785 37.13 11.7825 37.1286 11.785 37.1277C11.7876 37.1268 11.789 37.1264 11.7891 37.1263L12.3907 39.0337ZM13.1884 37.1462C12.9959 36.0857 12.5689 34.8839 12.0071 33.776L10.2233 34.6805C10.7152 35.6506 11.0689 36.6681 11.2205 37.5034L13.1884 37.1462ZM12.0071 33.776C11.8024 33.3723 11.5977 33.0347 11.3016 32.6897C11.0171 32.3584 10.6717 32.0481 10.2223 31.6747L8.94408 33.213C9.37518 33.5712 9.61368 33.794 9.7841 33.9925C9.94278 34.1774 10.0638 34.3661 10.2233 34.6805L12.0071 33.776ZM10.2222 31.6746C8.91826 30.5915 8.30558 29.9225 7.64476 28.9081L5.969 29.9998C6.76787 31.2261 7.53232 32.0402 8.94418 33.213L10.2222 31.6746ZM7.64479 28.9082C6.5673 27.254 6.09528 25.5964 6.10609 23.3775L4.10611 23.3678C4.09359 25.9391 4.65802 27.9872 5.96897 29.9998L7.64479 28.9082ZM6.10609 23.3775C6.11006 22.5598 6.15233 22.0033 6.26399 21.4569C6.37667 20.9054 6.56807 20.3247 6.90949 19.4648L5.05066 18.7268C4.69355 19.6261 4.45209 20.3341 4.30448 21.0565C4.15584 21.7838 4.11039 22.4861 4.10611 23.3678L6.10609 23.3775ZM6.90951 19.4648C7.07977 19.0359 7.23209 18.6522 7.2823 18.332C7.31375 18.1314 7.31418 17.9198 7.25724 17.6968C7.20553 17.4943 7.11823 17.3341 7.06462 17.2392L5.32348 18.2233C5.35871 18.2856 5.33597 18.2565 5.31941 18.1916C5.29763 18.1063 5.3038 18.039 5.30644 18.0222C5.30684 18.0196 5.30516 18.0311 5.29638 18.0625C5.28764 18.0938 5.27393 18.1375 5.25259 18.1987C5.20887 18.324 5.14479 18.4897 5.05064 18.7268L6.90951 19.4648ZM7.06466 17.2393C6.57481 16.3724 5.43746 15.8726 4.44715 16.5169L5.53783 18.1933C5.5147 18.2084 5.48132 18.2222 5.44173 18.2273C5.40313 18.2323 5.36998 18.2275 5.34605 18.2201C5.29743 18.2048 5.30209 18.1855 5.32344 18.2232L7.06466 17.2393ZM4.44713 16.5169C4.15473 16.7071 3.93119 17.0149 3.78804 17.2312C3.61937 17.486 3.45013 17.792 3.29173 18.1147C2.97563 18.7588 2.66762 19.5417 2.47484 20.2576L4.40603 20.7777C4.56034 20.2047 4.81878 19.5427 5.08715 18.9959C5.22097 18.7232 5.34847 18.4972 5.45588 18.3349C5.5888 18.1341 5.62067 18.1394 5.53786 18.1933L4.44713 16.5169ZM2.47485 20.2575C2.25289 21.0815 2.1464 22.2271 2.13228 23.3333C2.11808 24.4451 2.19598 25.6197 2.38918 26.5119L4.34388 26.0887C4.19457 25.3992 4.11896 24.3895 4.13211 23.3589C4.14534 22.3227 4.24706 21.3678 4.40601 20.7777L2.47485 20.2575ZM2.3892 26.512C2.919 28.9578 4.30176 31.4045 6.18126 33.2709L7.59052 31.8517C5.96311 30.2357 4.78552 28.1275 4.34386 26.0886L2.3892 26.512ZM6.18122 33.2708C6.67316 33.7594 6.91009 34.0807 7.06764 34.4442C7.23498 34.8302 7.34597 35.3396 7.45009 36.2672L9.43761 36.0442C9.32947 35.0807 9.19464 34.3224 8.90265 33.6488C8.60088 32.9526 8.16496 32.4222 7.59057 31.8518L6.18122 33.2708ZM7.4501 36.2673C7.49042 36.6262 7.51415 36.8821 7.52222 37.071C7.53079 37.2716 7.51762 37.3275 7.52041 37.3156C7.53127 37.2697 7.58296 37.1276 7.73212 37.0146C7.8416 36.9316 7.92369 36.9301 7.8297 36.9488L8.2194 38.9104C8.39003 38.8765 8.67715 38.8079 8.94025 38.6084C9.24304 38.3789 9.39694 38.0711 9.46678 37.7757C9.52856 37.5144 9.53113 37.2369 9.5204 36.9856C9.50916 36.7228 9.47853 36.4084 9.4376 36.0441L7.4501 36.2673ZM7.82995 36.9487C7.57321 36.9997 7.34528 37.1154 7.17977 37.2144C7.0007 37.3216 6.82508 37.4518 6.66408 37.5887C6.35257 37.8535 6.02203 38.2063 5.80315 38.578L7.52654 39.5929C7.59829 39.471 7.75839 39.2834 7.95947 39.1125C8.05477 39.0315 8.14094 38.97 8.20688 38.9305C8.28638 38.8829 8.28668 38.8971 8.21916 38.9105L7.82995 36.9487ZM5.80304 38.5782C5.76321 38.6459 5.72397 38.7051 5.69493 38.7469C5.68065 38.7675 5.66946 38.783 5.66272 38.7922C5.65936 38.7968 5.65716 38.7997 5.65628 38.8009C5.65584 38.8015 5.65574 38.8016 5.656 38.8013C5.65613 38.8011 5.65634 38.8008 5.65666 38.8004C5.65681 38.8002 5.65699 38.8 5.65719 38.7997C5.65729 38.7996 5.6574 38.7994 5.65751 38.7993C5.65757 38.7992 5.65763 38.7991 5.65769 38.7991C5.65772 38.799 5.65776 38.799 5.65778 38.7989C5.65782 38.7989 5.65787 38.7988 6.4512 39.4076C7.24454 40.0164 7.24459 40.0163 7.24464 40.0163C7.24465 40.0162 7.2447 40.0162 7.24473 40.0161C7.2448 40.0161 7.24487 40.016 7.24493 40.0159C7.24507 40.0157 7.24522 40.0155 7.24537 40.0153C7.24567 40.0149 7.246 40.0145 7.24635 40.014C7.24706 40.0131 7.24787 40.012 7.24878 40.0108C7.2506 40.0084 7.25282 40.0055 7.25541 40.002C7.2606 39.9951 7.26732 39.9861 7.27535 39.9752C7.29138 39.9533 7.31287 39.9235 7.33818 39.887C7.38831 39.8148 7.45588 39.7129 7.52664 39.5927L5.80304 38.5782ZM6.4512 39.4076C5.72028 38.7252 5.7202 38.7252 5.72013 38.7253C5.7201 38.7253 5.72002 38.7254 5.71997 38.7255C5.71986 38.7256 5.71975 38.7257 5.71964 38.7258C5.71942 38.7261 5.71919 38.7263 5.71894 38.7266C5.71845 38.7271 5.71792 38.7277 5.71735 38.7283C5.71621 38.7295 5.7149 38.7309 5.71343 38.7325C5.7105 38.7357 5.70693 38.7396 5.70278 38.7442C5.69452 38.7533 5.68385 38.7653 5.67139 38.7796C5.64684 38.8078 5.61338 38.8473 5.57664 38.8943C5.52016 38.9666 5.39096 39.1368 5.30816 39.3444L7.16592 40.0852C7.13729 40.157 7.11517 40.1736 7.15224 40.1262C7.16226 40.1134 7.17218 40.1016 7.17933 40.0934C7.18271 40.0895 7.18496 40.087 7.18566 40.0863C7.186 40.0859 7.18592 40.086 7.18536 40.0866C7.18507 40.0869 7.18467 40.0873 7.18413 40.0879C7.18387 40.0882 7.18357 40.0885 7.18323 40.0889C7.18307 40.0891 7.18289 40.0892 7.18271 40.0894C7.18262 40.0895 7.18252 40.0896 7.18242 40.0897C7.18238 40.0898 7.1823 40.0899 7.18228 40.0899C7.1822 40.09 7.18213 40.0901 6.4512 39.4076ZM5.30816 39.3444C4.98123 40.1644 5.26365 41.3031 6.28161 41.693L6.997 39.8253C7.09956 39.8646 7.1496 39.941 7.16555 39.984C7.17956 40.0217 7.17802 40.0548 7.16592 40.0852L5.30816 39.3444ZM6.28178 41.693C6.52148 41.7848 6.81871 41.8027 7.1077 41.8162C7.4574 41.8326 8.0068 41.8442 8.88366 41.8519C10.6427 41.8672 13.7746 41.867 19.3901 41.852L19.3848 39.852C13.7666 39.867 10.6466 39.8671 8.90109 39.8519C8.02568 39.8443 7.50964 39.8329 7.20142 39.8184C6.83249 39.8011 6.87932 39.7803 6.99684 39.8252L6.28178 41.693ZM19.3901 41.852C28.2612 41.8284 32.0156 41.828 33.535 41.7363C33.9064 41.7139 34.2218 41.6826 34.4608 41.622C34.5724 41.5937 34.7702 41.5351 34.9567 41.396C35.1936 41.2195 35.4019 40.915 35.399 40.5163C35.3968 40.2174 35.2697 39.9987 35.2361 39.9405C35.2112 39.8972 35.1869 39.8601 35.1731 39.8394C35.1515 39.8068 35.1538 39.8108 35.1424 39.7932C35.1023 39.7319 35.2123 39.8677 35.2123 40.0928H33.2123C33.2123 40.5069 33.4154 40.8066 33.4684 40.8878C33.5221 40.9698 33.5038 40.94 33.5029 40.9385C33.496 40.9265 33.4738 40.8871 33.4522 40.8285C33.4307 40.7699 33.4 40.666 33.399 40.531C33.3965 40.1838 33.5821 39.9262 33.7614 39.7926C33.8904 39.6963 33.9959 39.6766 33.969 39.6834C33.9308 39.6931 33.7837 39.7176 33.4145 39.7399C31.9712 39.827 28.3132 39.8283 19.3848 39.852L19.3901 41.852ZM35.2198 39.7778L35.7902 38.867L34.0951 37.8055L33.5247 38.7163L35.2198 39.7778ZM35.7902 38.8669C36.833 37.2015 37.9969 35.0196 38.3656 33.9887L36.4824 33.3152C36.1892 34.1351 35.1205 36.1678 34.0951 37.8055L35.7902 38.8669ZM38.3656 33.9886C38.5719 33.4118 38.7776 32.4982 38.8357 31.8973L36.8449 31.705C36.8031 32.1381 36.6344 32.8902 36.4824 33.3153L38.3656 33.9886ZM38.8357 31.8972L38.9263 30.9574L36.9356 30.7653L36.8449 31.7051L38.8357 31.8972ZM38.9295 30.916L38.9334 30.844L36.9364 30.7347L36.9324 30.8067L38.9295 30.916ZM38.9292 30.0498C38.9565 29.7944 39.0179 29.448 38.9694 29.0022C38.9231 28.5773 38.785 28.0713 38.5268 27.3047L36.6314 27.943C36.8857 28.698 36.9602 29.0266 36.9811 29.2185C36.9997 29.3895 36.9827 29.4422 36.9405 29.8375L38.9292 30.0498ZM38.5268 27.3046C38.2848 26.5862 38.0167 25.9862 37.6273 25.4069C37.2417 24.8335 36.7632 24.3192 36.1445 23.7454L34.7846 25.2119C35.3474 25.7339 35.7028 26.1291 35.9675 26.5228C36.2283 26.9107 36.4268 27.3355 36.6315 27.9431L38.5268 27.3046ZM36.1445 23.7454C35.1697 22.8414 34.1815 22.1962 32.8853 21.7267C31.6175 21.2675 30.0893 20.9892 28.0599 20.7625L27.8379 22.7501C29.8223 22.9718 31.1624 23.2298 32.2042 23.6071C33.2176 23.9742 33.9803 24.466 34.7846 25.2119L36.1445 23.7454ZM28.0599 20.7625C26.4367 20.5811 25.4093 20.3786 24.6244 20.0743C23.8727 19.7829 23.2978 19.3799 22.6211 18.7079L21.2118 20.127C22.0316 20.9412 22.8317 21.5243 23.9014 21.939C24.9379 22.3409 26.1784 22.5647 27.8378 22.7501L28.0599 20.7625ZM22.6211 18.7078C22.0598 18.1505 21.6968 17.6644 21.3679 16.9442C21.0225 16.1875 20.7064 15.1548 20.2846 13.4754L18.3448 13.9625C18.7685 15.6493 19.1207 16.8377 19.5486 17.7748C19.993 18.7483 20.5082 19.4283 21.2119 20.1271L22.6211 18.7078ZM20.2846 13.4753C20.1711 13.0238 20.088 12.6907 20.0293 12.4409C19.9684 12.1813 19.9436 12.0511 19.9358 11.9888C19.9318 11.9572 19.938 11.9853 19.9336 12.0447C19.9297 12.0983 19.9112 12.2755 19.7798 12.4649C19.6264 12.6858 19.4165 12.7878 19.2663 12.8282C19.153 12.8586 19.0642 12.8555 19.0922 12.8552L19.0679 10.8553C19.0396 10.8557 18.9019 10.8552 18.7477 10.8966C18.5566 10.9479 18.3139 11.0693 18.1367 11.3245C17.9815 11.5483 17.948 11.7748 17.9389 11.8992C17.9294 12.0294 17.9402 12.1498 17.9514 12.2387C17.9915 12.5568 18.1292 13.104 18.3449 13.9626L20.2846 13.4753ZM19.0922 12.8552C19.3789 12.8517 19.619 12.7319 19.6943 12.6948C19.8182 12.6339 19.945 12.5577 20.0633 12.4811C20.3029 12.3257 20.5775 12.1222 20.8468 11.9069C21.3687 11.4898 21.9759 10.944 22.316 10.5168L20.7512 9.27122C20.5551 9.51762 20.0911 9.95057 19.5981 10.3447C19.3599 10.535 19.1411 10.6954 18.9753 10.8028C18.8909 10.8576 18.837 10.8876 18.8113 10.9003C18.7372 10.9367 18.859 10.8579 19.0679 10.8553L19.0922 12.8552ZM22.316 10.5168C23.9463 8.46864 24.8644 5.74659 24.5058 3.52113L22.5313 3.83929C22.7773 5.36591 22.1328 7.53552 20.7512 9.27121L22.316 10.5168ZM24.5059 3.52118C24.4114 2.93491 24.2195 2.31372 23.707 1.86243C23.2019 1.41764 22.5612 1.29441 21.9622 1.25745L21.839 3.25365C22.0594 3.26725 22.1986 3.29322 22.2861 3.31992C22.3276 3.33259 22.3526 3.34399 22.3663 3.35128C22.3793 3.35817 22.3842 3.36246 22.3853 3.36347C22.3864 3.3644 22.3898 3.36738 22.3958 3.37604C22.4024 3.38537 22.4142 3.40442 22.4291 3.43862C22.4607 3.51135 22.4983 3.6343 22.5313 3.83924L24.5059 3.52118ZM21.9623 1.25745C20.813 1.18645 19.4978 1.59538 18.2261 2.24793C16.9318 2.91213 15.5821 3.88006 14.3362 5.05793L15.7102 6.51128C16.8368 5.44618 18.034 4.59448 19.1392 4.02734C20.2671 3.44855 21.2044 3.21444 21.8389 3.25365L21.9623 1.25745ZM14.3363 5.05788L13.5223 5.82727L14.8961 7.28072L15.7101 6.51134L14.3363 5.05788ZM14.4562 5.58498L13.6323 5.37497L13.1383 7.313L13.9622 7.52301L14.4562 5.58498ZM13.6323 5.37498C13.1724 5.25772 12.5572 5.12994 12.2536 5.10413L12.0842 7.09694C12.2123 7.10782 12.6918 7.19916 13.1383 7.31299L13.6323 5.37498ZM12.2542 5.10418L11.8619 5.07061L11.6914 7.06332L12.0837 7.09689L12.2542 5.10418ZM12.7758 6.02631L12.7361 5.05043L10.7378 5.13173L10.7775 6.10761L12.7758 6.02631ZM12.7361 5.05035C12.6786 3.63891 12.3552 2.33444 11.7465 1.05868L9.94141 1.91989C10.4337 2.95164 10.6912 3.99086 10.7378 5.13181L12.7361 5.05035ZM11.7465 1.05861C11.5378 0.621452 11.3123 0.228759 11.0565 -0.0900938C10.8021 -0.407087 10.4748 -0.704803 10.0491 -0.864447C9.09288 -1.2231 8.26044 -0.706122 7.68536 -0.17977L9.03568 1.29557C9.2418 1.10692 9.36658 1.04089 9.41868 1.02161C9.44459 1.01201 9.40166 1.02875 9.34677 1.00817C9.31874 0.997657 9.37308 1.00769 9.49663 1.16165C9.61868 1.31375 9.76738 1.5552 9.94144 1.91996L11.7465 1.05861ZM24.3883 37.097C24.4325 37.2136 24.467 37.3072 24.4939 37.3862C24.521 37.4657 24.5362 37.5184 24.5445 37.5532C24.5629 37.6298 24.5322 37.5588 24.5671 37.4316C24.6057 37.2905 24.6831 37.2268 24.6594 37.2484C24.6458 37.2609 24.6168 37.2852 24.5609 37.3256C24.5054 37.3658 24.4357 37.4131 24.3438 37.4736L25.4447 39.1434C25.6307 39.0207 25.8392 38.8799 26.01 38.7236C26.1952 38.554 26.4002 38.3098 26.496 37.9599C26.5881 37.6238 26.5442 37.3156 26.4895 37.0874C26.4361 36.8643 26.3472 36.622 26.2582 36.3875L24.3883 37.097ZM24.3438 37.4736C24.1083 37.6289 23.88 37.8051 23.6955 37.9718C23.6041 38.0545 23.5103 38.1465 23.4281 38.2424C23.3724 38.3073 23.2241 38.4826 23.1477 38.7218L25.053 39.3299C25.0195 39.4349 24.9762 39.5013 24.9658 39.517C24.9507 39.5399 24.9419 39.5495 24.9464 39.5442C24.9557 39.5334 24.9839 39.5032 25.0363 39.4558C25.1397 39.3624 25.2868 39.2475 25.4448 39.1433L24.3438 37.4736ZM23.1478 38.7214C23.1591 38.6862 23.1893 38.6027 23.2575 38.5097C23.3296 38.4114 23.4143 38.3424 23.49 38.2981C23.6052 38.2306 23.6732 38.2372 23.5416 38.2565C23.2993 38.292 22.8182 38.3178 21.8021 38.3576L21.8804 40.3561C22.8445 40.3183 23.4573 40.2902 23.8316 40.2353C24.0085 40.2094 24.2655 40.1618 24.5015 40.0234C24.8239 39.8344 24.9795 39.56 25.0529 39.3303L23.1478 38.7214ZM21.8021 38.3576C20.4341 38.4112 19.2421 38.4381 18.3841 38.4387C17.953 38.439 17.6183 38.4327 17.392 38.421C17.276 38.4151 17.208 38.4086 17.177 38.4044C17.1592 38.4019 17.1762 38.4032 17.2118 38.4127C17.2294 38.4174 17.2719 38.4293 17.3261 38.4528C17.3667 38.4705 17.492 38.5269 17.617 38.6511L16.2078 40.0702C16.3394 40.2009 16.4752 40.2638 16.5301 40.2876C16.5985 40.3173 16.6589 40.3352 16.6983 40.3456C16.7772 40.3666 16.8523 40.3786 16.9067 40.386C17.02 40.4015 17.1528 40.4114 17.2889 40.4184C17.5668 40.4327 17.9418 40.4391 18.3856 40.4387C19.2776 40.438 20.4969 40.4103 21.8804 40.3561L21.8021 38.3576ZM17.617 38.6511C17.7679 38.8009 17.8329 38.9631 17.8614 39.0631C17.8903 39.1646 17.8949 39.2473 17.8953 39.2932C17.8961 39.3827 17.8813 39.4397 17.8795 39.4471C17.8739 39.4694 17.8755 39.4553 17.8941 39.4215L16.1437 38.454C16.0586 38.608 15.9843 38.7828 15.9401 38.9584C15.9189 39.0424 15.8941 39.1672 15.8954 39.3109C15.8962 39.4014 15.9042 39.7688 16.2078 40.0702L17.617 38.6511ZM17.8942 39.4214C18.0912 39.0648 18.1416 39.052 18.1418 39.0519C18.1862 39.0246 18.3136 38.9699 18.8773 38.8809L18.5655 36.9054C18.0465 36.9873 17.529 37.0815 17.0959 37.3471C16.6188 37.6399 16.3593 38.0639 16.1437 38.4541L17.8942 39.4214ZM18.8772 38.881C20.7614 38.5838 22.5762 38.2073 24.0286 37.8094L23.5002 35.8805C22.1359 36.2542 20.3962 36.6167 18.5656 36.9054L18.8772 38.881ZM24.0287 37.8094C24.407 37.7057 24.7548 37.6104 25.0105 37.5405C25.2789 37.4671 25.4231 37.4278 25.4187 37.4289L24.9338 35.4886C24.8994 35.4972 24.2435 35.6767 23.5001 35.8805L24.0287 37.8094ZM25.4247 37.4274C25.1394 37.5006 24.9042 37.43 24.7795 37.3754C24.6553 37.321 24.5711 37.2535 24.5305 37.2182C24.4489 37.1474 24.4008 37.081 24.3884 37.0639C24.356 37.019 24.3417 36.9892 24.3466 36.9986C24.3507 37.0066 24.3673 37.0415 24.3882 37.0967L26.2584 36.3878C26.2182 36.282 26.1711 36.1725 26.122 36.0778C26.1002 36.0358 26.0619 35.9651 26.0096 35.8926C25.9873 35.8618 25.9303 35.7849 25.841 35.7075C25.7966 35.6689 25.7089 35.599 25.5815 35.5433C25.4536 35.4872 25.2156 35.4163 24.9278 35.4901L25.4247 37.4274ZM26.6295 38.0655C26.5449 38.2266 26.4856 38.3331 26.4403 38.4064C26.393 38.4829 26.3819 38.4882 26.4023 38.4676C26.4153 38.4543 26.4404 38.4312 26.4779 38.4062C26.5167 38.3804 26.5607 38.358 26.6076 38.3411C26.6992 38.3082 26.7621 38.311 26.7424 38.3111L26.7483 40.3111C26.8822 40.3107 27.0745 40.2987 27.2846 40.2231C27.5071 40.143 27.6845 40.0158 27.8267 39.8714C28.06 39.6348 28.2407 39.2993 28.4003 38.9952L26.6295 38.0655ZM26.7427 38.3111C26.6926 38.3112 26.6755 38.3061 26.6968 38.3106C26.6992 38.3111 26.7677 38.3242 26.86 38.3702C26.9044 38.3924 27.0067 38.4476 27.1106 38.5548C27.2183 38.6659 27.385 38.8969 27.385 39.2352H25.385C25.385 39.5841 25.5568 39.8253 25.6741 39.9464C25.7877 40.0636 25.9042 40.1284 25.9669 40.1597C26.0958 40.224 26.2172 40.2535 26.285 40.2678C26.4369 40.2997 26.6 40.3114 26.748 40.3111L26.7427 38.3111ZM27.385 39.2352C27.385 39.3706 27.3563 39.4722 27.3425 39.5161C27.3265 39.5672 27.3096 39.6043 27.3009 39.6225C27.2839 39.6581 27.2718 39.6756 27.2768 39.6678C27.2852 39.6549 27.311 39.6183 27.3609 39.5556C27.4573 39.4344 27.5969 39.2738 27.7485 39.1102C27.9001 38.9464 28.0486 38.796 28.1601 38.6926C28.2181 38.6389 28.2504 38.6125 28.2597 38.6054C28.266 38.6007 28.2457 38.617 28.206 38.6391C28.1859 38.6503 28.1443 38.6723 28.0864 38.6935C28.0374 38.7114 27.9191 38.7507 27.7601 38.7507V36.7507C27.4717 36.7507 27.2607 36.8763 27.2325 36.892C27.158 36.9335 27.0957 36.9783 27.0538 37.0099C26.9669 37.0756 26.8785 37.1535 26.8004 37.2259C26.6397 37.3749 26.454 37.5645 26.2812 37.7511C26.1082 37.9379 25.9329 38.138 25.7956 38.3107C25.7286 38.3949 25.6577 38.4887 25.5988 38.5796C25.5701 38.6238 25.5316 38.6866 25.4966 38.7598C25.4798 38.7948 25.385 38.9843 25.385 39.2352H27.385ZM27.7601 38.7507C27.5178 38.7507 27.2198 38.6525 27.0085 38.3877C26.8342 38.1694 26.8092 37.9472 26.8041 37.8656C26.7941 37.7064 26.8341 37.6097 26.8199 37.6551C26.8055 37.7008 26.752 37.8321 26.6294 38.0657L28.4004 38.995C28.5373 38.7341 28.6584 38.4756 28.7277 38.2551C28.7553 38.1674 28.8145 37.9685 28.8002 37.7404C28.7929 37.6242 28.7599 37.376 28.5716 37.1401C28.3463 36.8578 28.0283 36.7507 27.7601 36.7507V38.7507ZM38.9349 30.0737V29.9436H36.9349V30.0737H38.9349ZM33.3897 39.0612L33.2298 39.907L35.1949 40.2786L35.3549 39.4328L33.3897 39.0612ZM38.9349 30.7894V30.0737H36.9349V30.7894H38.9349Z" fill="#FF6C00" mask="url(#path-2-inside-1_113_2723)"/>
</svg>
